<mxfile host="www.draw.io" modified="2020-02-12T20:26:28.862Z" agent="Mozilla/5.0 (Windows NT 10.0; Win64; x64) AppleWebKit/537.36 (KHTML, like Gecko) Chrome/80.0.3987.100 Safari/537.36" etag="4HrEWw2QbvtUUBQrCROA" version="12.6.8" type="github">
  <diagram id="E8IiC6JQ-o9sN17pe7Jk" name="Page-1">
    <mxGraphModel dx="1038" dy="580" grid="1" gridSize="10" guides="1" tooltips="1" connect="1" arrows="1" fold="1" page="1" pageScale="1" pageWidth="850" pageHeight="1100" math="0" shadow="0">
      <root>
        <mxCell id="0"/>
        <mxCell id="1" parent="0"/>
        <mxCell id="bi2Pr6hSx3faxHtsOiaC-1" value="" style="ellipse;whiteSpace=wrap;html=1;aspect=fixed;fillColor=#000000;" parent="1" vertex="1">
          <mxGeometry x="320" y="305" width="10" height="10" as="geometry"/>
        </mxCell>
        <mxCell id="bi2Pr6hSx3faxHtsOiaC-2" value="" style="endArrow=classic;html=1;exitX=0.771;exitY=0.027;exitDx=0;exitDy=0;exitPerimeter=0;" parent="1" source="bi2Pr6hSx3faxHtsOiaC-1" edge="1">
          <mxGeometry width="50" height="50" relative="1" as="geometry">
            <mxPoint x="328" y="305" as="sourcePoint"/>
            <mxPoint x="350" y="264.9999999999999" as="targetPoint"/>
          </mxGeometry>
        </mxCell>
        <mxCell id="bi2Pr6hSx3faxHtsOiaC-3" value="" style="endArrow=classic;html=1;exitX=0.817;exitY=0.943;exitDx=0;exitDy=0;exitPerimeter=0;" parent="1" source="bi2Pr6hSx3faxHtsOiaC-4" edge="1">
          <mxGeometry width="50" height="50" relative="1" as="geometry">
            <mxPoint x="260" y="280" as="sourcePoint"/>
            <mxPoint x="280" y="309.9999999999999" as="targetPoint"/>
          </mxGeometry>
        </mxCell>
        <mxCell id="bi2Pr6hSx3faxHtsOiaC-4" value="" style="ellipse;whiteSpace=wrap;html=1;aspect=fixed;fillColor=#FFFFFF;" parent="1" vertex="1">
          <mxGeometry x="250" y="270" width="10" height="10" as="geometry"/>
        </mxCell>
        <mxCell id="bi2Pr6hSx3faxHtsOiaC-5" value="Text" style="text;html=1;strokeColor=none;fillColor=none;align=center;verticalAlign=middle;whiteSpace=wrap;rounded=0;" parent="1" vertex="1">
          <mxGeometry x="270" y="230" width="60" height="20" as="geometry"/>
        </mxCell>
        <mxCell id="bi2Pr6hSx3faxHtsOiaC-6" value="" style="endArrow=classic;html=1;curved=1;" parent="1" edge="1">
          <mxGeometry width="50" height="50" relative="1" as="geometry">
            <mxPoint x="325" y="179.9999999999999" as="sourcePoint"/>
            <mxPoint x="270" y="179.9999999999999" as="targetPoint"/>
            <Array as="points">
              <mxPoint x="360" y="190"/>
              <mxPoint x="340" y="210"/>
              <mxPoint x="310" y="210"/>
              <mxPoint x="260" y="210"/>
              <mxPoint x="240" y="200"/>
              <mxPoint x="240" y="190"/>
            </Array>
          </mxGeometry>
        </mxCell>
        <mxCell id="bi2Pr6hSx3faxHtsOiaC-7" value="Module" style="whiteSpace=wrap;html=1;aspect=fixed;" parent="1" vertex="1">
          <mxGeometry x="390" y="200" width="80" height="80" as="geometry"/>
        </mxCell>
        <mxCell id="bi2Pr6hSx3faxHtsOiaC-8" value="Library Module" style="shape=process;whiteSpace=wrap;html=1;backgroundOutline=1;" parent="1" vertex="1">
          <mxGeometry x="510" y="200" width="90" height="80" as="geometry"/>
        </mxCell>
        <mxCell id="bi2Pr6hSx3faxHtsOiaC-9" value="" style="rhombus;whiteSpace=wrap;html=1;fillColor=#FFFFFF;" parent="1" vertex="1">
          <mxGeometry x="260" y="340" width="20" height="30" as="geometry"/>
        </mxCell>
        <mxCell id="bi2Pr6hSx3faxHtsOiaC-10" value="" style="endArrow=classic;html=1;exitX=0.5;exitY=1;exitDx=0;exitDy=0;strokeWidth=2;" parent="1" edge="1">
          <mxGeometry width="50" height="50" relative="1" as="geometry">
            <mxPoint x="310" y="329.9999999999999" as="sourcePoint"/>
            <mxPoint x="340" y="390" as="targetPoint"/>
          </mxGeometry>
        </mxCell>
      </root>
    </mxGraphModel>
  </diagram>
</mxfile>
